<svg width="93" height="94" viewBox="0 0 93 94" fill="none" xmlns="http://www.w3.org/2000/svg">
<rect y="0.5" width="93" height="93" rx="46.5" fill="#003070"/>
<path d="M37.6471 73.5V61.2986H37.1382C32.452 61.2078 28.4235 59.6222 25.0529 56.5418C21.6824 53.4613 19.998 49.6261 20 45.036C20 40.4933 21.5676 36.6541 24.7029 33.5184C27.8382 30.3807 31.6627 28.8119 36.1765 28.8119H42.1765L36.0176 22.5957L38.1 20.5L47.8235 30.2949L38.1 40.0838L36.0176 37.9881L42.1765 31.7719H36.1765C32.5 31.7719 29.3755 33.0576 26.8029 35.6289C24.2284 38.2002 22.9412 41.3359 22.9412 45.036C22.9412 48.8505 24.3882 52.0237 27.2824 54.5556C30.1765 57.0874 33.5745 58.3543 37.4765 58.3563H40.5882V66.3307L48.4559 58.3563H56.7647C60.4412 58.3563 63.5755 57.0618 66.1677 54.4727C68.7598 51.8836 70.0559 48.7381 70.0559 45.036C70.0559 41.3339 68.7598 38.1894 66.1677 35.6023C63.5755 33.0152 60.4412 31.7196 56.7647 31.7157H55.8588V28.7556H56.7647C61.2784 28.7556 65.1118 30.3333 68.2647 33.4888C71.4216 36.6442 73 40.4933 73 45.036C73 49.5787 71.4216 53.4278 68.2647 56.5832C65.1078 59.7387 61.2745 61.3164 56.7647 61.3164H49.7529L37.6471 73.5Z" fill="white"/>
</svg>
