<svg width="96" height="96" viewBox="0 0 96 96" fill="none" xmlns="http://www.w3.org/2000/svg">
<rect width="96" height="96" rx="48" fill="#003070"/>
<path d="M32.3244 68.9496C31.4907 68.9496 30.7774 68.6483 30.1845 68.0458C29.5916 67.4433 29.2941 66.7224 29.2921 65.8829V59.7558H37.697V49.7992C35.7705 50.2076 33.7965 50.1464 31.775 49.6153C29.7534 49.0823 28.085 48.1458 26.7697 46.806V42.4956H22.4595L14 33.9513C15.7443 32.35 17.7234 31.1522 19.9371 30.3577C22.1509 29.5632 24.4284 29.167 26.7697 29.169C28.7143 29.169 30.6054 29.4478 32.4428 30.0054C34.2802 30.5629 36.0316 31.4371 37.697 32.6278V27H68.0504V62.8194C68.0504 64.5493 67.4666 66.0024 66.299 67.1788C65.1314 68.3552 63.6917 68.9455 61.9797 68.9496H32.3244ZM40.7323 59.7588H58.9444V62.8224C58.9444 63.6884 59.2358 64.4155 59.8186 65.0037C60.4013 65.5919 61.1217 65.885 61.9797 65.8829C62.8377 65.8809 63.5591 65.5878 64.1439 65.0037C64.7287 64.4196 65.0191 63.6915 65.0151 62.8194V30.0636H40.7323V34.9653L57.4267 51.815V53.984H55.2777L46.0442 44.6615L44.3292 46.3955C43.7363 46.9919 43.1545 47.4923 42.5839 47.8967C42.0132 48.3011 41.396 48.6564 40.7323 48.9628V59.7588ZM23.7586 39.4289H29.805V45.4244C30.8411 46.0698 31.8043 46.5089 32.6947 46.7417C33.5851 46.9745 34.4512 47.0899 35.293 47.0879C36.6751 47.0879 37.9307 46.8499 39.0598 46.3741C40.191 45.8982 41.2503 45.1619 42.2378 44.1652L43.8951 42.4925L38.5954 37.1435C36.9725 35.5055 35.1533 34.277 33.1379 33.458C31.1224 32.639 28.9997 32.2305 26.7697 32.2326C25.2925 32.2326 23.8548 32.4266 22.4565 32.8147C21.0602 33.2027 19.8086 33.7072 18.7018 34.3281L23.7586 39.4289ZM55.909 62.8194H32.3244V65.8829H56.8318C56.4858 65.4642 56.2449 64.9925 56.1094 64.4676C55.9758 63.9447 55.909 63.3963 55.909 62.8224" fill="white"/>
</svg>
