<svg width="24" height="24" viewBox="0 0 24 24" fill="none" xmlns="http://www.w3.org/2000/svg">
<g id="cib:gmail">
<rect width="24" height="24" rx="10" fill="#003070"/>
<path id="Vector" d="M19.8261 7.21763V16.7827C19.8261 17.3256 19.403 17.7392 18.8478 17.7392H17.8695V9.05843L12 13.181L6.13041 9.05843V17.7392H5.15215C4.59699 17.7392 4.17389 17.3256 4.17389 16.7827V7.21763C4.17389 6.94598 4.27856 6.70685 4.45416 6.53755C4.54556 6.44801 4.65447 6.37739 4.77439 6.3299C4.89431 6.28241 5.02279 6.25901 5.15215 6.26112H5.4784L12 10.8844L18.5216 6.26112H18.8478C19.1256 6.26112 19.3702 6.36346 19.5458 6.53755C19.7214 6.70685 19.8261 6.94598 19.8261 7.21763Z" fill="white"/>
</g>
</svg>
