<svg width="24" height="24" viewBox="0 0 24 24" fill="none" xmlns="http://www.w3.org/2000/svg">
<g id="circum:facebook">
<rect width="24" height="24" rx="10" fill="#003070"/>
<path id="Vector" d="M16.802 6.19476C15.7529 5.14648 14.4164 4.43272 12.9615 4.14375C11.5066 3.85478 9.9987 4.00357 8.6284 4.5713C7.25811 5.13903 6.08699 6.10021 5.26315 7.3333C4.4393 8.56638 3.99972 10.016 4 11.4988C4 13.4876 4.79005 15.395 6.19645 16.8016C7.60285 18.2083 9.51047 18.999 11.4999 19C12.4844 19 13.4594 18.8077 14.37 18.4337C15.2775 18.0506 16.1031 17.4969 16.802 16.8029C17.4988 16.1064 18.0516 15.2795 18.4287 14.3694C18.8059 13.4593 19 12.4839 19 11.4988C19 10.5137 18.8059 9.53831 18.4287 8.62823C18.0516 7.71815 17.4988 6.89125 16.802 6.19476ZM16.2733 16.2668C15.1933 17.3511 13.7762 18.0355 12.2552 18.2072V13.2543H13.6751C13.8754 13.2543 14.0675 13.1747 14.2092 13.0331C14.3508 12.8915 14.4304 12.6995 14.4304 12.4992C14.4304 12.299 14.3508 12.1069 14.2092 11.9653C14.0675 11.8237 13.8754 11.7442 13.6751 11.7442H12.2552V9.67543C12.2552 9.47518 12.3348 9.28314 12.4764 9.14154C12.6181 8.99995 12.8102 8.9204 13.0105 8.9204H13.9168C14.1171 8.9204 14.3092 8.84086 14.4509 8.69926C14.5925 8.55767 14.6721 8.36562 14.6721 8.16538C14.6721 7.96513 14.5925 7.77309 14.4509 7.63149C14.3092 7.4899 14.1171 7.41035 13.9168 7.41035H12.6328C12.1321 7.41035 11.6518 7.60922 11.2977 7.96321C10.9436 8.31719 10.7446 8.7973 10.7446 9.29792V11.7442H9.33227C9.13196 11.7442 8.93985 11.8237 8.79821 11.9653C8.65657 12.1069 8.57699 12.299 8.57699 12.4992C8.57699 12.6995 8.65657 12.8915 8.79821 13.0331C8.93985 13.1747 9.13196 13.2543 9.33227 13.2543H10.7446V18.2072C9.34201 18.0473 8.02509 17.4508 6.97992 16.5021C5.93474 15.5534 5.21412 14.3005 4.91985 12.9202C4.62559 11.54 4.77254 10.1022 5.33996 8.80991C5.90739 7.51766 6.86659 6.43628 8.0821 5.7185C9.2976 5.00073 10.708 4.68285 12.114 4.80975C13.52 4.93666 14.8506 5.50194 15.9178 6.42575C16.9851 7.34957 17.735 8.58522 18.0617 9.95817C18.3884 11.3311 18.2754 12.772 17.7385 14.0772C17.396 14.8947 16.8984 15.6383 16.2733 16.2668Z" fill="white"/>
</g>
</svg>
